<?xml version="1.0" encoding="UTF-8" standalone="no"?>
<!DOCTYPE svg PUBLIC "-//W3C//DTD SVG 1.1//EN"
 "http://www.w3.org/Graphics/SVG/1.1/DTD/svg11.dtd">
<!-- Generated by graphviz version 2.43.0 (0)
 -->
<!-- Title: SequenceGraph Pages: 1 -->
<svg width="1262pt" height="44pt"
 viewBox="0.00 0.00 1262.00 44.00" xmlns="http://www.w3.org/2000/svg" xmlns:xlink="http://www.w3.org/1999/xlink">
<g id="graph0" class="graph" transform="scale(1 1) rotate(0) translate(4 40)">
<title>SequenceGraph</title>
<!-- n1 -->
<g id="node1" class="node">
<title>n1</title>
<polygon fill="lightblue" stroke="black" points="209,-36 0,-36 0,0 209,0 209,-36"/>
<text text-anchor="start" x="8" y="-14.3" font-family="Times,serif" font-size="14.00">1 | &quot;GetSystemDirectoryA&quot;</text>
</g>
<!-- n2 -->
<g id="node2" class="node">
<title>n2</title>
<polygon fill="lightblue" stroke="black" points="420,-36 245,-36 245,0 420,0 420,-36"/>
<text text-anchor="start" x="253" y="-14.3" font-family="Times,serif" font-size="14.00">2 | &quot;IsDBCSLeadByte&quot;</text>
</g>
<!-- n1&#45;&gt;n2 -->
<g id="edge1" class="edge">
<title>n1&#45;&gt;n2</title>
<path fill="none" stroke="black" d="M209.16,-18C209.16,-18 234.86,-18 234.86,-18"/>
<polygon fill="black" stroke="black" points="234.86,-21.5 244.86,-18 234.86,-14.5 234.86,-21.5"/>
</g>
<!-- n3 -->
<g id="node3" class="node">
<title>n3</title>
<polygon fill="lightblue" stroke="black" points="581,-36 456,-36 456,0 581,0 581,-36"/>
<text text-anchor="start" x="464" y="-14.3" font-family="Times,serif" font-size="14.00">3 | &quot;LocalAlloc&quot;</text>
</g>
<!-- n2&#45;&gt;n3 -->
<g id="edge2" class="edge">
<title>n2&#45;&gt;n3</title>
<path fill="none" stroke="black" d="M420.05,-18C420.05,-18 445.79,-18 445.79,-18"/>
<polygon fill="black" stroke="black" points="445.79,-21.5 455.79,-18 445.79,-14.5 445.79,-21.5"/>
</g>
<!-- n4 -->
<g id="node4" class="node">
<title>n4</title>
<polygon fill="lightblue" stroke="black" points="813,-36 617,-36 617,0 813,0 813,-36"/>
<text text-anchor="start" x="625" y="-14.3" font-family="Times,serif" font-size="14.00">4 | &quot;CreateSemaphoreW&quot;</text>
</g>
<!-- n3&#45;&gt;n4 -->
<g id="edge3" class="edge">
<title>n3&#45;&gt;n4</title>
<path fill="none" stroke="black" d="M581.21,-18C581.21,-18 606.71,-18 606.71,-18"/>
<polygon fill="black" stroke="black" points="606.71,-21.5 616.71,-18 606.71,-14.5 606.71,-21.5"/>
</g>
<!-- n5 -->
<g id="node5" class="node">
<title>n5</title>
<polygon fill="lightblue" stroke="black" points="1040,-36 849,-36 849,0 1040,0 1040,-36"/>
<text text-anchor="start" x="857" y="-14.3" font-family="Times,serif" font-size="14.00">5 | &quot;CreateSemaphoreA&quot;</text>
</g>
<!-- n4&#45;&gt;n5 -->
<g id="edge4" class="edge">
<title>n4&#45;&gt;n5</title>
<path fill="none" stroke="black" d="M813.33,-18C813.33,-18 838.93,-18 838.93,-18"/>
<polygon fill="black" stroke="black" points="838.93,-21.5 848.93,-18 838.93,-14.5 838.93,-21.5"/>
</g>
<!-- n6 -->
<g id="node6" class="node">
<title>n6</title>
<polygon fill="lightblue" stroke="black" points="1254,-36 1076,-36 1076,0 1254,0 1254,-36"/>
<text text-anchor="start" x="1084" y="-14.3" font-family="Times,serif" font-size="14.00">6 | &quot;GlobalAddAtomW&quot;</text>
</g>
<!-- n5&#45;&gt;n6 -->
<g id="edge5" class="edge">
<title>n5&#45;&gt;n6</title>
<path fill="none" stroke="black" d="M1040.25,-18C1040.25,-18 1065.94,-18 1065.94,-18"/>
<polygon fill="black" stroke="black" points="1065.94,-21.5 1075.94,-18 1065.94,-14.5 1065.94,-21.5"/>
</g>
</g>
</svg>
