<?xml version="1.0" encoding="utf-8" standalone="no"?>
<!DOCTYPE svg PUBLIC "-//W3C//DTD SVG 1.1//EN"
  "http://www.w3.org/Graphics/SVG/1.1/DTD/svg11.dtd">
<svg xmlns:xlink="http://www.w3.org/1999/xlink" width="712.46125pt" height="373pt" viewBox="0 0 712.46125 373" xmlns="http://www.w3.org/2000/svg" version="1.1">
 <metadata>
  <rdf:RDF xmlns:dc="http://purl.org/dc/elements/1.1/" xmlns:cc="http://creativecommons.org/ns#" xmlns:rdf="http://www.w3.org/1999/02/22-rdf-syntax-ns#">
   <cc:Work>
    <dc:type rdf:resource="http://purl.org/dc/dcmitype/StillImage"/>
    <dc:date>2025-10-18T19:44:26.808039</dc:date>
    <dc:format>image/svg+xml</dc:format>
    <dc:creator>
     <cc:Agent>
      <dc:title>Matplotlib v3.10.6, https://matplotlib.org/</dc:title>
     </cc:Agent>
    </dc:creator>
   </cc:Work>
  </rdf:RDF>
 </metadata>
 <defs>
  <style type="text/css">*{stroke-linejoin: round; stroke-linecap: butt}</style>
 </defs>
 <g id="figure_1">
  <g id="patch_1">
   <path d="M 0 373 
L 712.46125 373 
L 712.46125 0 
L 0 0 
L 0 373 
z
" style="fill: none"/>
  </g>
  <g id="axes_1">
   <g id="patch_2">
    <path d="M 43.78125 275.515698 
L 367.37125 275.515698 
L 367.37125 69.36 
L 43.78125 69.36 
L 43.78125 275.515698 
z
" style="fill: none"/>
   </g>
   <g id="patch_3">
    <path d="M 58.489886 275.515698 
L 67.979329 275.515698 
L 67.979329 144.131497 
L 58.489886 144.131497 
z
" clip-path="url(#p30998d2d54)" style="fill: #1f77b4"/>
   </g>
   <g id="patch_4">
    <path d="M 96.447658 275.515698 
L 105.9371 275.515698 
L 105.9371 98.810814 
L 96.447658 98.810814 
z
" clip-path="url(#p30998d2d54)" style="fill: #1f77b4"/>
   </g>
   <g id="patch_5">
    <path d="M 134.405429 275.515698 
L 143.894872 275.515698 
L 143.894872 111.289972 
L 134.405429 111.289972 
z
" clip-path="url(#p30998d2d54)" style="fill: #1f77b4"/>
   </g>
   <g id="patch_6">
    <path d="M 172.3632 275.515698 
L 181.852643 275.515698 
L 181.852643 168.314735 
L 172.3632 168.314735 
z
" clip-path="url(#p30998d2d54)" style="fill: #1f77b4"/>
   </g>
   <g id="patch_7">
    <path d="M 210.320971 275.515698 
L 219.810414 275.515698 
L 219.810414 167.283957 
L 210.320971 167.283957 
z
" clip-path="url(#p30998d2d54)" style="fill: #1f77b4"/>
   </g>
   <g id="patch_8">
    <path d="M 248.278743 275.515698 
L 257.768185 275.515698 
L 257.768185 176.673925 
L 248.278743 176.673925 
z
" clip-path="url(#p30998d2d54)" style="fill: #1f77b4"/>
   </g>
   <g id="patch_9">
    <path d="M 286.236514 275.515698 
L 295.725957 275.515698 
L 295.725957 123.277644 
L 286.236514 123.277644 
z
" clip-path="url(#p30998d2d54)" style="fill: #1f77b4"/>
   </g>
   <g id="patch_10">
    <path d="M 324.194285 275.515698 
L 333.683728 275.515698 
L 333.683728 168.689564 
L 324.194285 168.689564 
z
" clip-path="url(#p30998d2d54)" style="fill: #1f77b4"/>
   </g>
   <g id="patch_11">
    <path d="M 67.979329 275.515698 
L 77.468772 275.515698 
L 77.468772 148.729944 
L 67.979329 148.729944 
z
" clip-path="url(#p30998d2d54)" style="fill: #ff7f0e"/>
   </g>
   <g id="patch_12">
    <path d="M 105.9371 275.515698 
L 115.426543 275.515698 
L 115.426543 110.59114 
L 105.9371 110.59114 
z
" clip-path="url(#p30998d2d54)" style="fill: #ff7f0e"/>
   </g>
   <g id="patch_13">
    <path d="M 143.894872 275.515698 
L 153.384315 275.515698 
L 153.384315 130.175931 
L 143.894872 130.175931 
z
" clip-path="url(#p30998d2d54)" style="fill: #ff7f0e"/>
   </g>
   <g id="patch_14">
    <path d="M 181.852643 275.515698 
L 191.342086 275.515698 
L 191.342086 140.008863 
L 181.852643 140.008863 
z
" clip-path="url(#p30998d2d54)" style="fill: #ff7f0e"/>
   </g>
   <g id="patch_15">
    <path d="M 219.810414 275.515698 
L 229.299857 275.515698 
L 229.299857 197.275885 
L 219.810414 197.275885 
z
" clip-path="url(#p30998d2d54)" style="fill: #ff7f0e"/>
   </g>
   <g id="patch_16">
    <path d="M 257.768185 275.515698 
L 267.257628 275.515698 
L 267.257628 167.283957 
L 257.768185 167.283957 
z
" clip-path="url(#p30998d2d54)" style="fill: #ff7f0e"/>
   </g>
   <g id="patch_17">
    <path d="M 295.725957 275.515698 
L 305.2154 275.515698 
L 305.2154 127.083595 
L 295.725957 127.083595 
z
" clip-path="url(#p30998d2d54)" style="fill: #ff7f0e"/>
   </g>
   <g id="patch_18">
    <path d="M 333.683728 275.515698 
L 343.173171 275.515698 
L 343.173171 158.00695 
L 333.683728 158.00695 
z
" clip-path="url(#p30998d2d54)" style="fill: #ff7f0e"/>
   </g>
   <g id="patch_19">
    <path d="M 77.468772 275.515698 
L 86.958215 275.515698 
L 86.958215 146.471673 
L 77.468772 146.471673 
z
" clip-path="url(#p30998d2d54)" style="fill: #2ca02c"/>
   </g>
   <g id="patch_20">
    <path d="M 115.426543 275.515698 
L 124.915986 275.515698 
L 124.915986 104.904086 
L 115.426543 104.904086 
z
" clip-path="url(#p30998d2d54)" style="fill: #2ca02c"/>
   </g>
   <g id="patch_21">
    <path d="M 153.384315 275.515698 
L 162.873757 275.515698 
L 162.873757 121.309049 
L 153.384315 121.309049 
z
" clip-path="url(#p30998d2d54)" style="fill: #2ca02c"/>
   </g>
   <g id="patch_22">
    <path d="M 191.342086 275.515698 
L 200.831529 275.515698 
L 200.831529 155.81239 
L 191.342086 155.81239 
z
" clip-path="url(#p30998d2d54)" style="fill: #2ca02c"/>
   </g>
   <g id="patch_23">
    <path d="M 229.299857 275.515698 
L 238.7893 275.515698 
L 238.7893 184.691859 
L 229.299857 184.691859 
z
" clip-path="url(#p30998d2d54)" style="fill: #2ca02c"/>
   </g>
   <g id="patch_24">
    <path d="M 267.257628 275.515698 
L 276.747071 275.515698 
L 276.747071 172.19184 
L 267.257628 172.19184 
z
" clip-path="url(#p30998d2d54)" style="fill: #2ca02c"/>
   </g>
   <g id="patch_25">
    <path d="M 305.2154 275.515698 
L 314.704842 275.515698 
L 314.704842 125.204708 
L 305.2154 125.204708 
z
" clip-path="url(#p30998d2d54)" style="fill: #2ca02c"/>
   </g>
   <g id="patch_26">
    <path d="M 343.173171 275.515698 
L 352.662614 275.515698 
L 352.662614 163.602605 
L 343.173171 163.602605 
z
" clip-path="url(#p30998d2d54)" style="fill: #2ca02c"/>
   </g>
   <g id="matplotlib.axis_1">
    <g id="xtick_1">
     <g id="line2d_1">
      <defs>
       <path id="md06d840711" d="M 0 0 
L 0 3.5 
" style="stroke: #000000; stroke-width: 0.8"/>
      </defs>
      <g>
       <use xlink:href="#md06d840711" x="72.724051" y="275.515698" style="stroke: #000000; stroke-width: 0.8"/>
      </g>
     </g>
     <g id="text_1">
      <!-- backdoor -->
      <g transform="translate(58.248249 320.742554) rotate(-45) scale(0.1 -0.1)">
       <defs>
        <path id="DejaVuSans-62" d="M 3116 1747 
Q 3116 2381 2855 2742 
Q 2594 3103 2138 3103 
Q 1681 3103 1420 2742 
Q 1159 2381 1159 1747 
Q 1159 1113 1420 752 
Q 1681 391 2138 391 
Q 2594 391 2855 752 
Q 3116 1113 3116 1747 
z
M 1159 2969 
Q 1341 3281 1617 3432 
Q 1894 3584 2278 3584 
Q 2916 3584 3314 3078 
Q 3713 2572 3713 1747 
Q 3713 922 3314 415 
Q 2916 -91 2278 -91 
Q 1894 -91 1617 61 
Q 1341 213 1159 525 
L 1159 0 
L 581 0 
L 581 4863 
L 1159 4863 
L 1159 2969 
z
" transform="scale(0.015625)"/>
        <path id="DejaVuSans-61" d="M 2194 1759 
Q 1497 1759 1228 1600 
Q 959 1441 959 1056 
Q 959 750 1161 570 
Q 1363 391 1709 391 
Q 2188 391 2477 730 
Q 2766 1069 2766 1631 
L 2766 1759 
L 2194 1759 
z
M 3341 1997 
L 3341 0 
L 2766 0 
L 2766 531 
Q 2569 213 2275 61 
Q 1981 -91 1556 -91 
Q 1019 -91 701 211 
Q 384 513 384 1019 
Q 384 1609 779 1909 
Q 1175 2209 1959 2209 
L 2766 2209 
L 2766 2266 
Q 2766 2663 2505 2880 
Q 2244 3097 1772 3097 
Q 1472 3097 1187 3025 
Q 903 2953 641 2809 
L 641 3341 
Q 956 3463 1253 3523 
Q 1550 3584 1831 3584 
Q 2591 3584 2966 3190 
Q 3341 2797 3341 1997 
z
" transform="scale(0.015625)"/>
        <path id="DejaVuSans-63" d="M 3122 3366 
L 3122 2828 
Q 2878 2963 2633 3030 
Q 2388 3097 2138 3097 
Q 1578 3097 1268 2742 
Q 959 2388 959 1747 
Q 959 1106 1268 751 
Q 1578 397 2138 397 
Q 2388 397 2633 464 
Q 2878 531 3122 666 
L 3122 134 
Q 2881 22 2623 -34 
Q 2366 -91 2075 -91 
Q 1284 -91 818 406 
Q 353 903 353 1747 
Q 353 2603 823 3093 
Q 1294 3584 2113 3584 
Q 2378 3584 2631 3529 
Q 2884 3475 3122 3366 
z
" transform="scale(0.015625)"/>
        <path id="DejaVuSans-6b" d="M 581 4863 
L 1159 4863 
L 1159 1991 
L 2875 3500 
L 3609 3500 
L 1753 1863 
L 3688 0 
L 2938 0 
L 1159 1709 
L 1159 0 
L 581 0 
L 581 4863 
z
" transform="scale(0.015625)"/>
        <path id="DejaVuSans-64" d="M 2906 2969 
L 2906 4863 
L 3481 4863 
L 3481 0 
L 2906 0 
L 2906 525 
Q 2725 213 2448 61 
Q 2172 -91 1784 -91 
Q 1150 -91 751 415 
Q 353 922 353 1747 
Q 353 2572 751 3078 
Q 1150 3584 1784 3584 
Q 2172 3584 2448 3432 
Q 2725 3281 2906 2969 
z
M 947 1747 
Q 947 1113 1208 752 
Q 1469 391 1925 391 
Q 2381 391 2643 752 
Q 2906 1113 2906 1747 
Q 2906 2381 2643 2742 
Q 2381 3103 1925 3103 
Q 1469 3103 1208 2742 
Q 947 2381 947 1747 
z
" transform="scale(0.015625)"/>
        <path id="DejaVuSans-6f" d="M 1959 3097 
Q 1497 3097 1228 2736 
Q 959 2375 959 1747 
Q 959 1119 1226 758 
Q 1494 397 1959 397 
Q 2419 397 2687 759 
Q 2956 1122 2956 1747 
Q 2956 2369 2687 2733 
Q 2419 3097 1959 3097 
z
M 1959 3584 
Q 2709 3584 3137 3096 
Q 3566 2609 3566 1747 
Q 3566 888 3137 398 
Q 2709 -91 1959 -91 
Q 1206 -91 779 398 
Q 353 888 353 1747 
Q 353 2609 779 3096 
Q 1206 3584 1959 3584 
z
" transform="scale(0.015625)"/>
        <path id="DejaVuSans-72" d="M 2631 2963 
Q 2534 3019 2420 3045 
Q 2306 3072 2169 3072 
Q 1681 3072 1420 2755 
Q 1159 2438 1159 1844 
L 1159 0 
L 581 0 
L 581 3500 
L 1159 3500 
L 1159 2956 
Q 1341 3275 1631 3429 
Q 1922 3584 2338 3584 
Q 2397 3584 2469 3576 
Q 2541 3569 2628 3553 
L 2631 2963 
z
" transform="scale(0.015625)"/>
       </defs>
       <use xlink:href="#DejaVuSans-62"/>
       <use xlink:href="#DejaVuSans-61" transform="translate(63.476562 0)"/>
       <use xlink:href="#DejaVuSans-63" transform="translate(124.755859 0)"/>
       <use xlink:href="#DejaVuSans-6b" transform="translate(179.736328 0)"/>
       <use xlink:href="#DejaVuSans-64" transform="translate(237.646484 0)"/>
       <use xlink:href="#DejaVuSans-6f" transform="translate(301.123047 0)"/>
       <use xlink:href="#DejaVuSans-6f" transform="translate(362.304688 0)"/>
       <use xlink:href="#DejaVuSans-72" transform="translate(423.486328 0)"/>
      </g>
     </g>
    </g>
    <g id="xtick_2">
     <g id="line2d_2">
      <g>
       <use xlink:href="#md06d840711" x="110.681822" y="275.515698" style="stroke: #000000; stroke-width: 0.8"/>
      </g>
     </g>
     <g id="text_2">
      <!-- adware -->
      <g transform="translate(99.614496 313.925602) rotate(-45) scale(0.1 -0.1)">
       <defs>
        <path id="DejaVuSans-77" d="M 269 3500 
L 844 3500 
L 1563 769 
L 2278 3500 
L 2956 3500 
L 3675 769 
L 4391 3500 
L 4966 3500 
L 4050 0 
L 3372 0 
L 2619 2869 
L 1863 0 
L 1184 0 
L 269 3500 
z
" transform="scale(0.015625)"/>
        <path id="DejaVuSans-65" d="M 3597 1894 
L 3597 1613 
L 953 1613 
Q 991 1019 1311 708 
Q 1631 397 2203 397 
Q 2534 397 2845 478 
Q 3156 559 3463 722 
L 3463 178 
Q 3153 47 2828 -22 
Q 2503 -91 2169 -91 
Q 1331 -91 842 396 
Q 353 884 353 1716 
Q 353 2575 817 3079 
Q 1281 3584 2069 3584 
Q 2775 3584 3186 3129 
Q 3597 2675 3597 1894 
z
M 3022 2063 
Q 3016 2534 2758 2815 
Q 2500 3097 2075 3097 
Q 1594 3097 1305 2825 
Q 1016 2553 972 2059 
L 3022 2063 
z
" transform="scale(0.015625)"/>
       </defs>
       <use xlink:href="#DejaVuSans-61"/>
       <use xlink:href="#DejaVuSans-64" transform="translate(61.279297 0)"/>
       <use xlink:href="#DejaVuSans-77" transform="translate(124.755859 0)"/>
       <use xlink:href="#DejaVuSans-61" transform="translate(206.542969 0)"/>
       <use xlink:href="#DejaVuSans-72" transform="translate(267.822266 0)"/>
       <use xlink:href="#DejaVuSans-65" transform="translate(306.685547 0)"/>
      </g>
     </g>
    </g>
    <g id="xtick_3">
     <g id="line2d_3">
      <g>
       <use xlink:href="#md06d840711" x="148.639593" y="275.515698" style="stroke: #000000; stroke-width: 0.8"/>
      </g>
     </g>
     <g id="text_3">
      <!-- downloader -->
      <g transform="translate(129.865356 329.339425) rotate(-45) scale(0.1 -0.1)">
       <defs>
        <path id="DejaVuSans-6e" d="M 3513 2113 
L 3513 0 
L 2938 0 
L 2938 2094 
Q 2938 2591 2744 2837 
Q 2550 3084 2163 3084 
Q 1697 3084 1428 2787 
Q 1159 2491 1159 1978 
L 1159 0 
L 581 0 
L 581 3500 
L 1159 3500 
L 1159 2956 
Q 1366 3272 1645 3428 
Q 1925 3584 2291 3584 
Q 2894 3584 3203 3211 
Q 3513 2838 3513 2113 
z
" transform="scale(0.015625)"/>
        <path id="DejaVuSans-6c" d="M 603 4863 
L 1178 4863 
L 1178 0 
L 603 0 
L 603 4863 
z
" transform="scale(0.015625)"/>
       </defs>
       <use xlink:href="#DejaVuSans-64"/>
       <use xlink:href="#DejaVuSans-6f" transform="translate(63.476562 0)"/>
       <use xlink:href="#DejaVuSans-77" transform="translate(124.658203 0)"/>
       <use xlink:href="#DejaVuSans-6e" transform="translate(206.445312 0)"/>
       <use xlink:href="#DejaVuSans-6c" transform="translate(269.824219 0)"/>
       <use xlink:href="#DejaVuSans-6f" transform="translate(297.607422 0)"/>
       <use xlink:href="#DejaVuSans-61" transform="translate(358.789062 0)"/>
       <use xlink:href="#DejaVuSans-64" transform="translate(420.068359 0)"/>
       <use xlink:href="#DejaVuSans-65" transform="translate(483.544922 0)"/>
       <use xlink:href="#DejaVuSans-72" transform="translate(545.068359 0)"/>
      </g>
     </g>
    </g>
    <g id="xtick_4">
     <g id="line2d_4">
      <g>
       <use xlink:href="#md06d840711" x="186.597364" y="275.515698" style="stroke: #000000; stroke-width: 0.8"/>
      </g>
     </g>
     <g id="text_4">
      <!-- dropper -->
      <g transform="translate(174.648917 315.687845) rotate(-45) scale(0.1 -0.1)">
       <defs>
        <path id="DejaVuSans-70" d="M 1159 525 
L 1159 -1331 
L 581 -1331 
L 581 3500 
L 1159 3500 
L 1159 2969 
Q 1341 3281 1617 3432 
Q 1894 3584 2278 3584 
Q 2916 3584 3314 3078 
Q 3713 2572 3713 1747 
Q 3713 922 3314 415 
Q 2916 -91 2278 -91 
Q 1894 -91 1617 61 
Q 1341 213 1159 525 
z
M 3116 1747 
Q 3116 2381 2855 2742 
Q 2594 3103 2138 3103 
Q 1681 3103 1420 2742 
Q 1159 2381 1159 1747 
Q 1159 1113 1420 752 
Q 1681 391 2138 391 
Q 2594 391 2855 752 
Q 3116 1113 3116 1747 
z
" transform="scale(0.015625)"/>
       </defs>
       <use xlink:href="#DejaVuSans-64"/>
       <use xlink:href="#DejaVuSans-72" transform="translate(63.476562 0)"/>
       <use xlink:href="#DejaVuSans-6f" transform="translate(102.339844 0)"/>
       <use xlink:href="#DejaVuSans-70" transform="translate(163.521484 0)"/>
       <use xlink:href="#DejaVuSans-70" transform="translate(226.998047 0)"/>
       <use xlink:href="#DejaVuSans-65" transform="translate(290.474609 0)"/>
       <use xlink:href="#DejaVuSans-72" transform="translate(351.998047 0)"/>
      </g>
     </g>
    </g>
    <g id="xtick_5">
     <g id="line2d_5">
      <g>
       <use xlink:href="#md06d840711" x="224.555136" y="275.515698" style="stroke: #000000; stroke-width: 0.8"/>
      </g>
     </g>
     <g id="text_5">
      <!-- spyware -->
      <g transform="translate(211.720043 317.461136) rotate(-45) scale(0.1 -0.1)">
       <defs>
        <path id="DejaVuSans-73" d="M 2834 3397 
L 2834 2853 
Q 2591 2978 2328 3040 
Q 2066 3103 1784 3103 
Q 1356 3103 1142 2972 
Q 928 2841 928 2578 
Q 928 2378 1081 2264 
Q 1234 2150 1697 2047 
L 1894 2003 
Q 2506 1872 2764 1633 
Q 3022 1394 3022 966 
Q 3022 478 2636 193 
Q 2250 -91 1575 -91 
Q 1294 -91 989 -36 
Q 684 19 347 128 
L 347 722 
Q 666 556 975 473 
Q 1284 391 1588 391 
Q 1994 391 2212 530 
Q 2431 669 2431 922 
Q 2431 1156 2273 1281 
Q 2116 1406 1581 1522 
L 1381 1569 
Q 847 1681 609 1914 
Q 372 2147 372 2553 
Q 372 3047 722 3315 
Q 1072 3584 1716 3584 
Q 2034 3584 2315 3537 
Q 2597 3491 2834 3397 
z
" transform="scale(0.015625)"/>
        <path id="DejaVuSans-79" d="M 2059 -325 
Q 1816 -950 1584 -1140 
Q 1353 -1331 966 -1331 
L 506 -1331 
L 506 -850 
L 844 -850 
Q 1081 -850 1212 -737 
Q 1344 -625 1503 -206 
L 1606 56 
L 191 3500 
L 800 3500 
L 1894 763 
L 2988 3500 
L 3597 3500 
L 2059 -325 
z
" transform="scale(0.015625)"/>
       </defs>
       <use xlink:href="#DejaVuSans-73"/>
       <use xlink:href="#DejaVuSans-70" transform="translate(52.099609 0)"/>
       <use xlink:href="#DejaVuSans-79" transform="translate(115.576172 0)"/>
       <use xlink:href="#DejaVuSans-77" transform="translate(174.755859 0)"/>
       <use xlink:href="#DejaVuSans-61" transform="translate(256.542969 0)"/>
       <use xlink:href="#DejaVuSans-72" transform="translate(317.822266 0)"/>
       <use xlink:href="#DejaVuSans-65" transform="translate(356.685547 0)"/>
      </g>
     </g>
    </g>
    <g id="xtick_6">
     <g id="line2d_6">
      <g>
       <use xlink:href="#md06d840711" x="262.512907" y="275.515698" style="stroke: #000000; stroke-width: 0.8"/>
      </g>
     </g>
     <g id="text_6">
      <!-- trojan -->
      <g transform="translate(254.151369 308.514026) rotate(-45) scale(0.1 -0.1)">
       <defs>
        <path id="DejaVuSans-74" d="M 1172 4494 
L 1172 3500 
L 2356 3500 
L 2356 3053 
L 1172 3053 
L 1172 1153 
Q 1172 725 1289 603 
Q 1406 481 1766 481 
L 2356 481 
L 2356 0 
L 1766 0 
Q 1100 0 847 248 
Q 594 497 594 1153 
L 594 3053 
L 172 3053 
L 172 3500 
L 594 3500 
L 594 4494 
L 1172 4494 
z
" transform="scale(0.015625)"/>
        <path id="DejaVuSans-6a" d="M 603 3500 
L 1178 3500 
L 1178 -63 
Q 1178 -731 923 -1031 
Q 669 -1331 103 -1331 
L -116 -1331 
L -116 -844 
L 38 -844 
Q 366 -844 484 -692 
Q 603 -541 603 -63 
L 603 3500 
z
M 603 4863 
L 1178 4863 
L 1178 4134 
L 603 4134 
L 603 4863 
z
" transform="scale(0.015625)"/>
       </defs>
       <use xlink:href="#DejaVuSans-74"/>
       <use xlink:href="#DejaVuSans-72" transform="translate(39.208984 0)"/>
       <use xlink:href="#DejaVuSans-6f" transform="translate(78.072266 0)"/>
       <use xlink:href="#DejaVuSans-6a" transform="translate(139.253906 0)"/>
       <use xlink:href="#DejaVuSans-61" transform="translate(167.037109 0)"/>
       <use xlink:href="#DejaVuSans-6e" transform="translate(228.316406 0)"/>
      </g>
     </g>
    </g>
    <g id="xtick_7">
     <g id="line2d_7">
      <g>
       <use xlink:href="#md06d840711" x="300.470678" y="275.515698" style="stroke: #000000; stroke-width: 0.8"/>
      </g>
     </g>
     <g id="text_7">
      <!-- virus -->
      <g transform="translate(293.811169 305.109969) rotate(-45) scale(0.1 -0.1)">
       <defs>
        <path id="DejaVuSans-76" d="M 191 3500 
L 800 3500 
L 1894 563 
L 2988 3500 
L 3597 3500 
L 2284 0 
L 1503 0 
L 191 3500 
z
" transform="scale(0.015625)"/>
        <path id="DejaVuSans-69" d="M 603 3500 
L 1178 3500 
L 1178 0 
L 603 0 
L 603 3500 
z
M 603 4863 
L 1178 4863 
L 1178 4134 
L 603 4134 
L 603 4863 
z
" transform="scale(0.015625)"/>
        <path id="DejaVuSans-75" d="M 544 1381 
L 544 3500 
L 1119 3500 
L 1119 1403 
Q 1119 906 1312 657 
Q 1506 409 1894 409 
Q 2359 409 2629 706 
Q 2900 1003 2900 1516 
L 2900 3500 
L 3475 3500 
L 3475 0 
L 2900 0 
L 2900 538 
Q 2691 219 2414 64 
Q 2138 -91 1772 -91 
Q 1169 -91 856 284 
Q 544 659 544 1381 
z
M 1991 3584 
L 1991 3584 
z
" transform="scale(0.015625)"/>
       </defs>
       <use xlink:href="#DejaVuSans-76"/>
       <use xlink:href="#DejaVuSans-69" transform="translate(59.179688 0)"/>
       <use xlink:href="#DejaVuSans-72" transform="translate(86.962891 0)"/>
       <use xlink:href="#DejaVuSans-75" transform="translate(128.076172 0)"/>
       <use xlink:href="#DejaVuSans-73" transform="translate(191.455078 0)"/>
      </g>
     </g>
    </g>
    <g id="xtick_8">
     <g id="line2d_8">
      <g>
       <use xlink:href="#md06d840711" x="338.428449" y="275.515698" style="stroke: #000000; stroke-width: 0.8"/>
      </g>
     </g>
     <g id="text_8">
      <!-- worm -->
      <g transform="translate(330.489519 307.668812) rotate(-45) scale(0.1 -0.1)">
       <defs>
        <path id="DejaVuSans-6d" d="M 3328 2828 
Q 3544 3216 3844 3400 
Q 4144 3584 4550 3584 
Q 5097 3584 5394 3201 
Q 5691 2819 5691 2113 
L 5691 0 
L 5113 0 
L 5113 2094 
Q 5113 2597 4934 2840 
Q 4756 3084 4391 3084 
Q 3944 3084 3684 2787 
Q 3425 2491 3425 1978 
L 3425 0 
L 2847 0 
L 2847 2094 
Q 2847 2600 2669 2842 
Q 2491 3084 2119 3084 
Q 1678 3084 1418 2786 
Q 1159 2488 1159 1978 
L 1159 0 
L 581 0 
L 581 3500 
L 1159 3500 
L 1159 2956 
Q 1356 3278 1631 3431 
Q 1906 3584 2284 3584 
Q 2666 3584 2933 3390 
Q 3200 3197 3328 2828 
z
" transform="scale(0.015625)"/>
       </defs>
       <use xlink:href="#DejaVuSans-77"/>
       <use xlink:href="#DejaVuSans-6f" transform="translate(81.787109 0)"/>
       <use xlink:href="#DejaVuSans-72" transform="translate(142.96875 0)"/>
       <use xlink:href="#DejaVuSans-6d" transform="translate(182.332031 0)"/>
      </g>
     </g>
    </g>
   </g>
   <g id="matplotlib.axis_2">
    <g id="ytick_1">
     <g id="line2d_9">
      <defs>
       <path id="mf84d8a6bbc" d="M 0 0 
L -3.5 0 
" style="stroke: #000000; stroke-width: 0.8"/>
      </defs>
      <g>
       <use xlink:href="#mf84d8a6bbc" x="43.78125" y="275.515698" style="stroke: #000000; stroke-width: 0.8"/>
      </g>
     </g>
     <g id="text_9">
      <!-- 0.0 -->
      <g transform="translate(20.878125 279.314917) scale(0.1 -0.1)">
       <defs>
        <path id="DejaVuSans-30" d="M 2034 4250 
Q 1547 4250 1301 3770 
Q 1056 3291 1056 2328 
Q 1056 1369 1301 889 
Q 1547 409 2034 409 
Q 2525 409 2770 889 
Q 3016 1369 3016 2328 
Q 3016 3291 2770 3770 
Q 2525 4250 2034 4250 
z
M 2034 4750 
Q 2819 4750 3233 4129 
Q 3647 3509 3647 2328 
Q 3647 1150 3233 529 
Q 2819 -91 2034 -91 
Q 1250 -91 836 529 
Q 422 1150 422 2328 
Q 422 3509 836 4129 
Q 1250 4750 2034 4750 
z
" transform="scale(0.015625)"/>
        <path id="DejaVuSans-2e" d="M 684 794 
L 1344 794 
L 1344 0 
L 684 0 
L 684 794 
z
" transform="scale(0.015625)"/>
       </defs>
       <use xlink:href="#DejaVuSans-30"/>
       <use xlink:href="#DejaVuSans-2e" transform="translate(63.623047 0)"/>
       <use xlink:href="#DejaVuSans-30" transform="translate(95.410156 0)"/>
      </g>
     </g>
    </g>
    <g id="ytick_2">
     <g id="line2d_10">
      <g>
       <use xlink:href="#mf84d8a6bbc" x="43.78125" y="234.284558" style="stroke: #000000; stroke-width: 0.8"/>
      </g>
     </g>
     <g id="text_10">
      <!-- 0.2 -->
      <g transform="translate(20.878125 238.083777) scale(0.1 -0.1)">
       <defs>
        <path id="DejaVuSans-32" d="M 1228 531 
L 3431 531 
L 3431 0 
L 469 0 
L 469 531 
Q 828 903 1448 1529 
Q 2069 2156 2228 2338 
Q 2531 2678 2651 2914 
Q 2772 3150 2772 3378 
Q 2772 3750 2511 3984 
Q 2250 4219 1831 4219 
Q 1534 4219 1204 4116 
Q 875 4013 500 3803 
L 500 4441 
Q 881 4594 1212 4672 
Q 1544 4750 1819 4750 
Q 2544 4750 2975 4387 
Q 3406 4025 3406 3419 
Q 3406 3131 3298 2873 
Q 3191 2616 2906 2266 
Q 2828 2175 2409 1742 
Q 1991 1309 1228 531 
z
" transform="scale(0.015625)"/>
       </defs>
       <use xlink:href="#DejaVuSans-30"/>
       <use xlink:href="#DejaVuSans-2e" transform="translate(63.623047 0)"/>
       <use xlink:href="#DejaVuSans-32" transform="translate(95.410156 0)"/>
      </g>
     </g>
    </g>
    <g id="ytick_3">
     <g id="line2d_11">
      <g>
       <use xlink:href="#mf84d8a6bbc" x="43.78125" y="193.053419" style="stroke: #000000; stroke-width: 0.8"/>
      </g>
     </g>
     <g id="text_11">
      <!-- 0.4 -->
      <g transform="translate(20.878125 196.852638) scale(0.1 -0.1)">
       <defs>
        <path id="DejaVuSans-34" d="M 2419 4116 
L 825 1625 
L 2419 1625 
L 2419 4116 
z
M 2253 4666 
L 3047 4666 
L 3047 1625 
L 3713 1625 
L 3713 1100 
L 3047 1100 
L 3047 0 
L 2419 0 
L 2419 1100 
L 313 1100 
L 313 1709 
L 2253 4666 
z
" transform="scale(0.015625)"/>
       </defs>
       <use xlink:href="#DejaVuSans-30"/>
       <use xlink:href="#DejaVuSans-2e" transform="translate(63.623047 0)"/>
       <use xlink:href="#DejaVuSans-34" transform="translate(95.410156 0)"/>
      </g>
     </g>
    </g>
    <g id="ytick_4">
     <g id="line2d_12">
      <g>
       <use xlink:href="#mf84d8a6bbc" x="43.78125" y="151.822279" style="stroke: #000000; stroke-width: 0.8"/>
      </g>
     </g>
     <g id="text_12">
      <!-- 0.6 -->
      <g transform="translate(20.878125 155.621498) scale(0.1 -0.1)">
       <defs>
        <path id="DejaVuSans-36" d="M 2113 2584 
Q 1688 2584 1439 2293 
Q 1191 2003 1191 1497 
Q 1191 994 1439 701 
Q 1688 409 2113 409 
Q 2538 409 2786 701 
Q 3034 994 3034 1497 
Q 3034 2003 2786 2293 
Q 2538 2584 2113 2584 
z
M 3366 4563 
L 3366 3988 
Q 3128 4100 2886 4159 
Q 2644 4219 2406 4219 
Q 1781 4219 1451 3797 
Q 1122 3375 1075 2522 
Q 1259 2794 1537 2939 
Q 1816 3084 2150 3084 
Q 2853 3084 3261 2657 
Q 3669 2231 3669 1497 
Q 3669 778 3244 343 
Q 2819 -91 2113 -91 
Q 1303 -91 875 529 
Q 447 1150 447 2328 
Q 447 3434 972 4092 
Q 1497 4750 2381 4750 
Q 2619 4750 2861 4703 
Q 3103 4656 3366 4563 
z
" transform="scale(0.015625)"/>
       </defs>
       <use xlink:href="#DejaVuSans-30"/>
       <use xlink:href="#DejaVuSans-2e" transform="translate(63.623047 0)"/>
       <use xlink:href="#DejaVuSans-36" transform="translate(95.410156 0)"/>
      </g>
     </g>
    </g>
    <g id="ytick_5">
     <g id="line2d_13">
      <g>
       <use xlink:href="#mf84d8a6bbc" x="43.78125" y="110.59114" style="stroke: #000000; stroke-width: 0.8"/>
      </g>
     </g>
     <g id="text_13">
      <!-- 0.8 -->
      <g transform="translate(20.878125 114.390358) scale(0.1 -0.1)">
       <defs>
        <path id="DejaVuSans-38" d="M 2034 2216 
Q 1584 2216 1326 1975 
Q 1069 1734 1069 1313 
Q 1069 891 1326 650 
Q 1584 409 2034 409 
Q 2484 409 2743 651 
Q 3003 894 3003 1313 
Q 3003 1734 2745 1975 
Q 2488 2216 2034 2216 
z
M 1403 2484 
Q 997 2584 770 2862 
Q 544 3141 544 3541 
Q 544 4100 942 4425 
Q 1341 4750 2034 4750 
Q 2731 4750 3128 4425 
Q 3525 4100 3525 3541 
Q 3525 3141 3298 2862 
Q 3072 2584 2669 2484 
Q 3125 2378 3379 2068 
Q 3634 1759 3634 1313 
Q 3634 634 3220 271 
Q 2806 -91 2034 -91 
Q 1263 -91 848 271 
Q 434 634 434 1313 
Q 434 1759 690 2068 
Q 947 2378 1403 2484 
z
M 1172 3481 
Q 1172 3119 1398 2916 
Q 1625 2713 2034 2713 
Q 2441 2713 2670 2916 
Q 2900 3119 2900 3481 
Q 2900 3844 2670 4047 
Q 2441 4250 2034 4250 
Q 1625 4250 1398 4047 
Q 1172 3844 1172 3481 
z
" transform="scale(0.015625)"/>
       </defs>
       <use xlink:href="#DejaVuSans-30"/>
       <use xlink:href="#DejaVuSans-2e" transform="translate(63.623047 0)"/>
       <use xlink:href="#DejaVuSans-38" transform="translate(95.410156 0)"/>
      </g>
     </g>
    </g>
    <g id="ytick_6">
     <g id="line2d_14">
      <g>
       <use xlink:href="#mf84d8a6bbc" x="43.78125" y="69.36" style="stroke: #000000; stroke-width: 0.8"/>
      </g>
     </g>
     <g id="text_14">
      <!-- 1.0 -->
      <g transform="translate(20.878125 73.159219) scale(0.1 -0.1)">
       <defs>
        <path id="DejaVuSans-31" d="M 794 531 
L 1825 531 
L 1825 4091 
L 703 3866 
L 703 4441 
L 1819 4666 
L 2450 4666 
L 2450 531 
L 3481 531 
L 3481 0 
L 794 0 
L 794 531 
z
" transform="scale(0.015625)"/>
       </defs>
       <use xlink:href="#DejaVuSans-31"/>
       <use xlink:href="#DejaVuSans-2e" transform="translate(63.623047 0)"/>
       <use xlink:href="#DejaVuSans-30" transform="translate(95.410156 0)"/>
      </g>
     </g>
    </g>
    <g id="text_15">
     <!-- Score -->
     <g transform="translate(14.798438 186.440193) rotate(-90) scale(0.1 -0.1)">
      <defs>
       <path id="DejaVuSans-53" d="M 3425 4513 
L 3425 3897 
Q 3066 4069 2747 4153 
Q 2428 4238 2131 4238 
Q 1616 4238 1336 4038 
Q 1056 3838 1056 3469 
Q 1056 3159 1242 3001 
Q 1428 2844 1947 2747 
L 2328 2669 
Q 3034 2534 3370 2195 
Q 3706 1856 3706 1288 
Q 3706 609 3251 259 
Q 2797 -91 1919 -91 
Q 1588 -91 1214 -16 
Q 841 59 441 206 
L 441 856 
Q 825 641 1194 531 
Q 1563 422 1919 422 
Q 2459 422 2753 634 
Q 3047 847 3047 1241 
Q 3047 1584 2836 1778 
Q 2625 1972 2144 2069 
L 1759 2144 
Q 1053 2284 737 2584 
Q 422 2884 422 3419 
Q 422 4038 858 4394 
Q 1294 4750 2059 4750 
Q 2388 4750 2728 4690 
Q 3069 4631 3425 4513 
z
" transform="scale(0.015625)"/>
      </defs>
      <use xlink:href="#DejaVuSans-53"/>
      <use xlink:href="#DejaVuSans-63" transform="translate(63.476562 0)"/>
      <use xlink:href="#DejaVuSans-6f" transform="translate(118.457031 0)"/>
      <use xlink:href="#DejaVuSans-72" transform="translate(179.638672 0)"/>
      <use xlink:href="#DejaVuSans-65" transform="translate(218.501953 0)"/>
     </g>
    </g>
   </g>
   <g id="patch_27">
    <path d="M 43.78125 275.515698 
L 43.78125 69.36 
" style="fill: none; stroke: #000000; stroke-width: 0.8; stroke-linejoin: miter; stroke-linecap: square"/>
   </g>
   <g id="patch_28">
    <path d="M 367.37125 275.515698 
L 367.37125 69.36 
" style="fill: none; stroke: #000000; stroke-width: 0.8; stroke-linejoin: miter; stroke-linecap: square"/>
   </g>
   <g id="patch_29">
    <path d="M 43.78125 275.515698 
L 367.37125 275.515698 
" style="fill: none; stroke: #000000; stroke-width: 0.8; stroke-linejoin: miter; stroke-linecap: square"/>
   </g>
   <g id="patch_30">
    <path d="M 43.78125 69.36 
L 367.37125 69.36 
" style="fill: none; stroke: #000000; stroke-width: 0.8; stroke-linejoin: miter; stroke-linecap: square"/>
   </g>
   <g id="text_16">
    <!-- octak - XGBoost -->
    <g transform="translate(157.428125 63.36) scale(0.12 -0.12)">
     <defs>
      <path id="DejaVuSans-20" transform="scale(0.015625)"/>
      <path id="DejaVuSans-2d" d="M 313 2009 
L 1997 2009 
L 1997 1497 
L 313 1497 
L 313 2009 
z
" transform="scale(0.015625)"/>
      <path id="DejaVuSans-58" d="M 403 4666 
L 1081 4666 
L 2241 2931 
L 3406 4666 
L 4084 4666 
L 2584 2425 
L 4184 0 
L 3506 0 
L 2194 1984 
L 872 0 
L 191 0 
L 1856 2491 
L 403 4666 
z
" transform="scale(0.015625)"/>
      <path id="DejaVuSans-47" d="M 3809 666 
L 3809 1919 
L 2778 1919 
L 2778 2438 
L 4434 2438 
L 4434 434 
Q 4069 175 3628 42 
Q 3188 -91 2688 -91 
Q 1594 -91 976 548 
Q 359 1188 359 2328 
Q 359 3472 976 4111 
Q 1594 4750 2688 4750 
Q 3144 4750 3555 4637 
Q 3966 4525 4313 4306 
L 4313 3634 
Q 3963 3931 3569 4081 
Q 3175 4231 2741 4231 
Q 1884 4231 1454 3753 
Q 1025 3275 1025 2328 
Q 1025 1384 1454 906 
Q 1884 428 2741 428 
Q 3075 428 3337 486 
Q 3600 544 3809 666 
z
" transform="scale(0.015625)"/>
      <path id="DejaVuSans-42" d="M 1259 2228 
L 1259 519 
L 2272 519 
Q 2781 519 3026 730 
Q 3272 941 3272 1375 
Q 3272 1813 3026 2020 
Q 2781 2228 2272 2228 
L 1259 2228 
z
M 1259 4147 
L 1259 2741 
L 2194 2741 
Q 2656 2741 2882 2914 
Q 3109 3088 3109 3444 
Q 3109 3797 2882 3972 
Q 2656 4147 2194 4147 
L 1259 4147 
z
M 628 4666 
L 2241 4666 
Q 2963 4666 3353 4366 
Q 3744 4066 3744 3513 
Q 3744 3084 3544 2831 
Q 3344 2578 2956 2516 
Q 3422 2416 3680 2098 
Q 3938 1781 3938 1306 
Q 3938 681 3513 340 
Q 3088 0 2303 0 
L 628 0 
L 628 4666 
z
" transform="scale(0.015625)"/>
     </defs>
     <use xlink:href="#DejaVuSans-6f"/>
     <use xlink:href="#DejaVuSans-63" transform="translate(61.181641 0)"/>
     <use xlink:href="#DejaVuSans-74" transform="translate(116.162109 0)"/>
     <use xlink:href="#DejaVuSans-61" transform="translate(155.371094 0)"/>
     <use xlink:href="#DejaVuSans-6b" transform="translate(216.650391 0)"/>
     <use xlink:href="#DejaVuSans-20" transform="translate(274.560547 0)"/>
     <use xlink:href="#DejaVuSans-2d" transform="translate(306.347656 0)"/>
     <use xlink:href="#DejaVuSans-20" transform="translate(342.431641 0)"/>
     <use xlink:href="#DejaVuSans-58" transform="translate(374.21875 0)"/>
     <use xlink:href="#DejaVuSans-47" transform="translate(442.724609 0)"/>
     <use xlink:href="#DejaVuSans-42" transform="translate(520.214844 0)"/>
     <use xlink:href="#DejaVuSans-6f" transform="translate(588.818359 0)"/>
     <use xlink:href="#DejaVuSans-6f" transform="translate(650 0)"/>
     <use xlink:href="#DejaVuSans-73" transform="translate(711.181641 0)"/>
     <use xlink:href="#DejaVuSans-74" transform="translate(763.28125 0)"/>
    </g>
   </g>
  </g>
  <g id="axes_2">
   <g id="patch_31">
    <path d="M 381.67125 275.515698 
L 705.26125 275.515698 
L 705.26125 69.36 
L 381.67125 69.36 
L 381.67125 275.515698 
z
" style="fill: none"/>
   </g>
   <g id="patch_32">
    <path d="M 396.379886 275.515698 
L 405.869329 275.515698 
L 405.869329 135.329823 
L 396.379886 135.329823 
z
" clip-path="url(#p9f3329d89f)" style="fill: #1f77b4"/>
   </g>
   <g id="patch_33">
    <path d="M 434.337658 275.515698 
L 443.8271 275.515698 
L 443.8271 94.776456 
L 434.337658 94.776456 
z
" clip-path="url(#p9f3329d89f)" style="fill: #1f77b4"/>
   </g>
   <g id="patch_34">
    <path d="M 472.295429 275.515698 
L 481.784872 275.515698 
L 481.784872 121.143185 
L 472.295429 121.143185 
z
" clip-path="url(#p9f3329d89f)" style="fill: #1f77b4"/>
   </g>
   <g id="patch_35">
    <path d="M 510.2532 275.515698 
L 519.742643 275.515698 
L 519.742643 150.205372 
L 510.2532 150.205372 
z
" clip-path="url(#p9f3329d89f)" style="fill: #1f77b4"/>
   </g>
   <g id="patch_36">
    <path d="M 548.210971 275.515698 
L 557.700414 275.515698 
L 557.700414 94.776456 
L 548.210971 94.776456 
z
" clip-path="url(#p9f3329d89f)" style="fill: #1f77b4"/>
   </g>
   <g id="patch_37">
    <path d="M 586.168743 275.515698 
L 595.658185 275.515698 
L 595.658185 163.172424 
L 586.168743 163.172424 
z
" clip-path="url(#p9f3329d89f)" style="fill: #1f77b4"/>
   </g>
   <g id="patch_38">
    <path d="M 624.126514 275.515698 
L 633.615957 275.515698 
L 633.615957 106.940466 
L 624.126514 106.940466 
z
" clip-path="url(#p9f3329d89f)" style="fill: #1f77b4"/>
   </g>
   <g id="patch_39">
    <path d="M 662.084285 275.515698 
L 671.573728 275.515698 
L 671.573728 150.071901 
L 662.084285 150.071901 
z
" clip-path="url(#p9f3329d89f)" style="fill: #1f77b4"/>
   </g>
   <g id="patch_40">
    <path d="M 405.869329 275.515698 
L 415.358772 275.515698 
L 415.358772 135.329823 
L 405.869329 135.329823 
z
" clip-path="url(#p9f3329d89f)" style="fill: #ff7f0e"/>
   </g>
   <g id="patch_41">
    <path d="M 443.8271 275.515698 
L 453.316543 275.515698 
L 453.316543 94.776456 
L 443.8271 94.776456 
z
" clip-path="url(#p9f3329d89f)" style="fill: #ff7f0e"/>
   </g>
   <g id="patch_42">
    <path d="M 481.784872 275.515698 
L 491.274315 275.515698 
L 491.274315 131.206709 
L 481.784872 131.206709 
z
" clip-path="url(#p9f3329d89f)" style="fill: #ff7f0e"/>
   </g>
   <g id="patch_43">
    <path d="M 519.742643 275.515698 
L 529.232086 275.515698 
L 529.232086 131.901616 
L 519.742643 131.901616 
z
" clip-path="url(#p9f3329d89f)" style="fill: #ff7f0e"/>
   </g>
   <g id="patch_44">
    <path d="M 557.700414 275.515698 
L 567.189857 275.515698 
L 567.189857 99.596169 
L 557.700414 99.596169 
z
" clip-path="url(#p9f3329d89f)" style="fill: #ff7f0e"/>
   </g>
   <g id="patch_45">
    <path d="M 595.658185 275.515698 
L 605.147628 275.515698 
L 605.147628 175.530185 
L 595.658185 175.530185 
z
" clip-path="url(#p9f3329d89f)" style="fill: #ff7f0e"/>
   </g>
   <g id="patch_46">
    <path d="M 633.615957 275.515698 
L 643.1054 275.515698 
L 643.1054 113.683475 
L 633.615957 113.683475 
z
" clip-path="url(#p9f3329d89f)" style="fill: #ff7f0e"/>
   </g>
   <g id="patch_47">
    <path d="M 671.573728 275.515698 
L 681.063171 275.515698 
L 681.063171 142.545273 
L 671.573728 142.545273 
z
" clip-path="url(#p9f3329d89f)" style="fill: #ff7f0e"/>
   </g>
   <g id="patch_48">
    <path d="M 415.358772 275.515698 
L 424.848215 275.515698 
L 424.848215 135.329823 
L 415.358772 135.329823 
z
" clip-path="url(#p9f3329d89f)" style="fill: #2ca02c"/>
   </g>
   <g id="patch_49">
    <path d="M 453.316543 275.515698 
L 462.805986 275.515698 
L 462.805986 97.218878 
L 453.316543 97.218878 
z
" clip-path="url(#p9f3329d89f)" style="fill: #2ca02c"/>
   </g>
   <g id="patch_50">
    <path d="M 491.274315 275.515698 
L 500.763757 275.515698 
L 500.763757 117.01156 
L 491.274315 117.01156 
z
" clip-path="url(#p9f3329d89f)" style="fill: #2ca02c"/>
   </g>
   <g id="patch_51">
    <path d="M 529.232086 275.515698 
L 538.721529 275.515698 
L 538.721529 141.676397 
L 529.232086 141.676397 
z
" clip-path="url(#p9f3329d89f)" style="fill: #2ca02c"/>
   </g>
   <g id="patch_52">
    <path d="M 567.189857 275.515698 
L 576.6793 275.515698 
L 576.6793 97.218878 
L 567.189857 97.218878 
z
" clip-path="url(#p9f3329d89f)" style="fill: #2ca02c"/>
   </g>
   <g id="patch_53">
    <path d="M 605.147628 275.515698 
L 614.637071 275.515698 
L 614.637071 169.710922 
L 605.147628 169.710922 
z
" clip-path="url(#p9f3329d89f)" style="fill: #2ca02c"/>
   </g>
   <g id="patch_54">
    <path d="M 643.1054 275.515698 
L 652.594842 275.515698 
L 652.594842 110.380777 
L 643.1054 110.380777 
z
" clip-path="url(#p9f3329d89f)" style="fill: #2ca02c"/>
   </g>
   <g id="patch_55">
    <path d="M 681.063171 275.515698 
L 690.552614 275.515698 
L 690.552614 146.418198 
L 681.063171 146.418198 
z
" clip-path="url(#p9f3329d89f)" style="fill: #2ca02c"/>
   </g>
   <g id="matplotlib.axis_3">
    <g id="xtick_9">
     <g id="line2d_15">
      <g>
       <use xlink:href="#md06d840711" x="410.614051" y="275.515698" style="stroke: #000000; stroke-width: 0.8"/>
      </g>
     </g>
     <g id="text_17">
      <!-- backdoor -->
      <g transform="translate(396.138249 320.742554) rotate(-45) scale(0.1 -0.1)">
       <use xlink:href="#DejaVuSans-62"/>
       <use xlink:href="#DejaVuSans-61" transform="translate(63.476562 0)"/>
       <use xlink:href="#DejaVuSans-63" transform="translate(124.755859 0)"/>
       <use xlink:href="#DejaVuSans-6b" transform="translate(179.736328 0)"/>
       <use xlink:href="#DejaVuSans-64" transform="translate(237.646484 0)"/>
       <use xlink:href="#DejaVuSans-6f" transform="translate(301.123047 0)"/>
       <use xlink:href="#DejaVuSans-6f" transform="translate(362.304688 0)"/>
       <use xlink:href="#DejaVuSans-72" transform="translate(423.486328 0)"/>
      </g>
     </g>
    </g>
    <g id="xtick_10">
     <g id="line2d_16">
      <g>
       <use xlink:href="#md06d840711" x="448.571822" y="275.515698" style="stroke: #000000; stroke-width: 0.8"/>
      </g>
     </g>
     <g id="text_18">
      <!-- adware -->
      <g transform="translate(437.504496 313.925602) rotate(-45) scale(0.1 -0.1)">
       <use xlink:href="#DejaVuSans-61"/>
       <use xlink:href="#DejaVuSans-64" transform="translate(61.279297 0)"/>
       <use xlink:href="#DejaVuSans-77" transform="translate(124.755859 0)"/>
       <use xlink:href="#DejaVuSans-61" transform="translate(206.542969 0)"/>
       <use xlink:href="#DejaVuSans-72" transform="translate(267.822266 0)"/>
       <use xlink:href="#DejaVuSans-65" transform="translate(306.685547 0)"/>
      </g>
     </g>
    </g>
    <g id="xtick_11">
     <g id="line2d_17">
      <g>
       <use xlink:href="#md06d840711" x="486.529593" y="275.515698" style="stroke: #000000; stroke-width: 0.8"/>
      </g>
     </g>
     <g id="text_19">
      <!-- downloader -->
      <g transform="translate(467.755356 329.339425) rotate(-45) scale(0.1 -0.1)">
       <use xlink:href="#DejaVuSans-64"/>
       <use xlink:href="#DejaVuSans-6f" transform="translate(63.476562 0)"/>
       <use xlink:href="#DejaVuSans-77" transform="translate(124.658203 0)"/>
       <use xlink:href="#DejaVuSans-6e" transform="translate(206.445312 0)"/>
       <use xlink:href="#DejaVuSans-6c" transform="translate(269.824219 0)"/>
       <use xlink:href="#DejaVuSans-6f" transform="translate(297.607422 0)"/>
       <use xlink:href="#DejaVuSans-61" transform="translate(358.789062 0)"/>
       <use xlink:href="#DejaVuSans-64" transform="translate(420.068359 0)"/>
       <use xlink:href="#DejaVuSans-65" transform="translate(483.544922 0)"/>
       <use xlink:href="#DejaVuSans-72" transform="translate(545.068359 0)"/>
      </g>
     </g>
    </g>
    <g id="xtick_12">
     <g id="line2d_18">
      <g>
       <use xlink:href="#md06d840711" x="524.487364" y="275.515698" style="stroke: #000000; stroke-width: 0.8"/>
      </g>
     </g>
     <g id="text_20">
      <!-- dropper -->
      <g transform="translate(512.538917 315.687845) rotate(-45) scale(0.1 -0.1)">
       <use xlink:href="#DejaVuSans-64"/>
       <use xlink:href="#DejaVuSans-72" transform="translate(63.476562 0)"/>
       <use xlink:href="#DejaVuSans-6f" transform="translate(102.339844 0)"/>
       <use xlink:href="#DejaVuSans-70" transform="translate(163.521484 0)"/>
       <use xlink:href="#DejaVuSans-70" transform="translate(226.998047 0)"/>
       <use xlink:href="#DejaVuSans-65" transform="translate(290.474609 0)"/>
       <use xlink:href="#DejaVuSans-72" transform="translate(351.998047 0)"/>
      </g>
     </g>
    </g>
    <g id="xtick_13">
     <g id="line2d_19">
      <g>
       <use xlink:href="#md06d840711" x="562.445136" y="275.515698" style="stroke: #000000; stroke-width: 0.8"/>
      </g>
     </g>
     <g id="text_21">
      <!-- spyware -->
      <g transform="translate(549.610043 317.461136) rotate(-45) scale(0.1 -0.1)">
       <use xlink:href="#DejaVuSans-73"/>
       <use xlink:href="#DejaVuSans-70" transform="translate(52.099609 0)"/>
       <use xlink:href="#DejaVuSans-79" transform="translate(115.576172 0)"/>
       <use xlink:href="#DejaVuSans-77" transform="translate(174.755859 0)"/>
       <use xlink:href="#DejaVuSans-61" transform="translate(256.542969 0)"/>
       <use xlink:href="#DejaVuSans-72" transform="translate(317.822266 0)"/>
       <use xlink:href="#DejaVuSans-65" transform="translate(356.685547 0)"/>
      </g>
     </g>
    </g>
    <g id="xtick_14">
     <g id="line2d_20">
      <g>
       <use xlink:href="#md06d840711" x="600.402907" y="275.515698" style="stroke: #000000; stroke-width: 0.8"/>
      </g>
     </g>
     <g id="text_22">
      <!-- trojan -->
      <g transform="translate(592.041369 308.514026) rotate(-45) scale(0.1 -0.1)">
       <use xlink:href="#DejaVuSans-74"/>
       <use xlink:href="#DejaVuSans-72" transform="translate(39.208984 0)"/>
       <use xlink:href="#DejaVuSans-6f" transform="translate(78.072266 0)"/>
       <use xlink:href="#DejaVuSans-6a" transform="translate(139.253906 0)"/>
       <use xlink:href="#DejaVuSans-61" transform="translate(167.037109 0)"/>
       <use xlink:href="#DejaVuSans-6e" transform="translate(228.316406 0)"/>
      </g>
     </g>
    </g>
    <g id="xtick_15">
     <g id="line2d_21">
      <g>
       <use xlink:href="#md06d840711" x="638.360678" y="275.515698" style="stroke: #000000; stroke-width: 0.8"/>
      </g>
     </g>
     <g id="text_23">
      <!-- virus -->
      <g transform="translate(631.701169 305.109969) rotate(-45) scale(0.1 -0.1)">
       <use xlink:href="#DejaVuSans-76"/>
       <use xlink:href="#DejaVuSans-69" transform="translate(59.179688 0)"/>
       <use xlink:href="#DejaVuSans-72" transform="translate(86.962891 0)"/>
       <use xlink:href="#DejaVuSans-75" transform="translate(128.076172 0)"/>
       <use xlink:href="#DejaVuSans-73" transform="translate(191.455078 0)"/>
      </g>
     </g>
    </g>
    <g id="xtick_16">
     <g id="line2d_22">
      <g>
       <use xlink:href="#md06d840711" x="676.318449" y="275.515698" style="stroke: #000000; stroke-width: 0.8"/>
      </g>
     </g>
     <g id="text_24">
      <!-- worm -->
      <g transform="translate(668.379519 307.668812) rotate(-45) scale(0.1 -0.1)">
       <use xlink:href="#DejaVuSans-77"/>
       <use xlink:href="#DejaVuSans-6f" transform="translate(81.787109 0)"/>
       <use xlink:href="#DejaVuSans-72" transform="translate(142.96875 0)"/>
       <use xlink:href="#DejaVuSans-6d" transform="translate(182.332031 0)"/>
      </g>
     </g>
    </g>
   </g>
   <g id="matplotlib.axis_4">
    <g id="ytick_7">
     <g id="line2d_23">
      <g>
       <use xlink:href="#mf84d8a6bbc" x="381.67125" y="275.515698" style="stroke: #000000; stroke-width: 0.8"/>
      </g>
     </g>
    </g>
    <g id="ytick_8">
     <g id="line2d_24">
      <g>
       <use xlink:href="#mf84d8a6bbc" x="381.67125" y="234.284558" style="stroke: #000000; stroke-width: 0.8"/>
      </g>
     </g>
    </g>
    <g id="ytick_9">
     <g id="line2d_25">
      <g>
       <use xlink:href="#mf84d8a6bbc" x="381.67125" y="193.053419" style="stroke: #000000; stroke-width: 0.8"/>
      </g>
     </g>
    </g>
    <g id="ytick_10">
     <g id="line2d_26">
      <g>
       <use xlink:href="#mf84d8a6bbc" x="381.67125" y="151.822279" style="stroke: #000000; stroke-width: 0.8"/>
      </g>
     </g>
    </g>
    <g id="ytick_11">
     <g id="line2d_27">
      <g>
       <use xlink:href="#mf84d8a6bbc" x="381.67125" y="110.59114" style="stroke: #000000; stroke-width: 0.8"/>
      </g>
     </g>
    </g>
    <g id="ytick_12">
     <g id="line2d_28">
      <g>
       <use xlink:href="#mf84d8a6bbc" x="381.67125" y="69.36" style="stroke: #000000; stroke-width: 0.8"/>
      </g>
     </g>
    </g>
   </g>
   <g id="patch_56">
    <path d="M 381.67125 275.515698 
L 381.67125 69.36 
" style="fill: none; stroke: #000000; stroke-width: 0.8; stroke-linejoin: miter; stroke-linecap: square"/>
   </g>
   <g id="patch_57">
    <path d="M 705.26125 275.515698 
L 705.26125 69.36 
" style="fill: none; stroke: #000000; stroke-width: 0.8; stroke-linejoin: miter; stroke-linecap: square"/>
   </g>
   <g id="patch_58">
    <path d="M 381.67125 275.515698 
L 705.26125 275.515698 
" style="fill: none; stroke: #000000; stroke-width: 0.8; stroke-linejoin: miter; stroke-linecap: square"/>
   </g>
   <g id="patch_59">
    <path d="M 381.67125 69.36 
L 705.26125 69.36 
" style="fill: none; stroke: #000000; stroke-width: 0.8; stroke-linejoin: miter; stroke-linecap: square"/>
   </g>
   <g id="text_25">
    <!-- octak - RandomForest -->
    <g transform="translate(477.77 63.36) scale(0.12 -0.12)">
     <defs>
      <path id="DejaVuSans-52" d="M 2841 2188 
Q 3044 2119 3236 1894 
Q 3428 1669 3622 1275 
L 4263 0 
L 3584 0 
L 2988 1197 
Q 2756 1666 2539 1819 
Q 2322 1972 1947 1972 
L 1259 1972 
L 1259 0 
L 628 0 
L 628 4666 
L 2053 4666 
Q 2853 4666 3247 4331 
Q 3641 3997 3641 3322 
Q 3641 2881 3436 2590 
Q 3231 2300 2841 2188 
z
M 1259 4147 
L 1259 2491 
L 2053 2491 
Q 2509 2491 2742 2702 
Q 2975 2913 2975 3322 
Q 2975 3731 2742 3939 
Q 2509 4147 2053 4147 
L 1259 4147 
z
" transform="scale(0.015625)"/>
      <path id="DejaVuSans-46" d="M 628 4666 
L 3309 4666 
L 3309 4134 
L 1259 4134 
L 1259 2759 
L 3109 2759 
L 3109 2228 
L 1259 2228 
L 1259 0 
L 628 0 
L 628 4666 
z
" transform="scale(0.015625)"/>
     </defs>
     <use xlink:href="#DejaVuSans-6f"/>
     <use xlink:href="#DejaVuSans-63" transform="translate(61.181641 0)"/>
     <use xlink:href="#DejaVuSans-74" transform="translate(116.162109 0)"/>
     <use xlink:href="#DejaVuSans-61" transform="translate(155.371094 0)"/>
     <use xlink:href="#DejaVuSans-6b" transform="translate(216.650391 0)"/>
     <use xlink:href="#DejaVuSans-20" transform="translate(274.560547 0)"/>
     <use xlink:href="#DejaVuSans-2d" transform="translate(306.347656 0)"/>
     <use xlink:href="#DejaVuSans-20" transform="translate(342.431641 0)"/>
     <use xlink:href="#DejaVuSans-52" transform="translate(374.21875 0)"/>
     <use xlink:href="#DejaVuSans-61" transform="translate(441.451172 0)"/>
     <use xlink:href="#DejaVuSans-6e" transform="translate(502.730469 0)"/>
     <use xlink:href="#DejaVuSans-64" transform="translate(566.109375 0)"/>
     <use xlink:href="#DejaVuSans-6f" transform="translate(629.585938 0)"/>
     <use xlink:href="#DejaVuSans-6d" transform="translate(690.767578 0)"/>
     <use xlink:href="#DejaVuSans-46" transform="translate(788.179688 0)"/>
     <use xlink:href="#DejaVuSans-6f" transform="translate(842.074219 0)"/>
     <use xlink:href="#DejaVuSans-72" transform="translate(903.255859 0)"/>
     <use xlink:href="#DejaVuSans-65" transform="translate(942.119141 0)"/>
     <use xlink:href="#DejaVuSans-73" transform="translate(1003.642578 0)"/>
     <use xlink:href="#DejaVuSans-74" transform="translate(1055.742188 0)"/>
    </g>
   </g>
  </g>
  <g id="text_26">
   <!-- Confronto per classe: Precision, Recall e F1-score -->
   <g transform="translate(184.047187 17.837812) scale(0.14 -0.14)">
    <defs>
     <path id="DejaVuSans-43" d="M 4122 4306 
L 4122 3641 
Q 3803 3938 3442 4084 
Q 3081 4231 2675 4231 
Q 1875 4231 1450 3742 
Q 1025 3253 1025 2328 
Q 1025 1406 1450 917 
Q 1875 428 2675 428 
Q 3081 428 3442 575 
Q 3803 722 4122 1019 
L 4122 359 
Q 3791 134 3420 21 
Q 3050 -91 2638 -91 
Q 1578 -91 968 557 
Q 359 1206 359 2328 
Q 359 3453 968 4101 
Q 1578 4750 2638 4750 
Q 3056 4750 3426 4639 
Q 3797 4528 4122 4306 
z
" transform="scale(0.015625)"/>
     <path id="DejaVuSans-66" d="M 2375 4863 
L 2375 4384 
L 1825 4384 
Q 1516 4384 1395 4259 
Q 1275 4134 1275 3809 
L 1275 3500 
L 2222 3500 
L 2222 3053 
L 1275 3053 
L 1275 0 
L 697 0 
L 697 3053 
L 147 3053 
L 147 3500 
L 697 3500 
L 697 3744 
Q 697 4328 969 4595 
Q 1241 4863 1831 4863 
L 2375 4863 
z
" transform="scale(0.015625)"/>
     <path id="DejaVuSans-3a" d="M 750 794 
L 1409 794 
L 1409 0 
L 750 0 
L 750 794 
z
M 750 3309 
L 1409 3309 
L 1409 2516 
L 750 2516 
L 750 3309 
z
" transform="scale(0.015625)"/>
     <path id="DejaVuSans-50" d="M 1259 4147 
L 1259 2394 
L 2053 2394 
Q 2494 2394 2734 2622 
Q 2975 2850 2975 3272 
Q 2975 3691 2734 3919 
Q 2494 4147 2053 4147 
L 1259 4147 
z
M 628 4666 
L 2053 4666 
Q 2838 4666 3239 4311 
Q 3641 3956 3641 3272 
Q 3641 2581 3239 2228 
Q 2838 1875 2053 1875 
L 1259 1875 
L 1259 0 
L 628 0 
L 628 4666 
z
" transform="scale(0.015625)"/>
     <path id="DejaVuSans-2c" d="M 750 794 
L 1409 794 
L 1409 256 
L 897 -744 
L 494 -744 
L 750 256 
L 750 794 
z
" transform="scale(0.015625)"/>
    </defs>
    <use xlink:href="#DejaVuSans-43"/>
    <use xlink:href="#DejaVuSans-6f" transform="translate(69.824219 0)"/>
    <use xlink:href="#DejaVuSans-6e" transform="translate(131.005859 0)"/>
    <use xlink:href="#DejaVuSans-66" transform="translate(194.384766 0)"/>
    <use xlink:href="#DejaVuSans-72" transform="translate(229.589844 0)"/>
    <use xlink:href="#DejaVuSans-6f" transform="translate(268.453125 0)"/>
    <use xlink:href="#DejaVuSans-6e" transform="translate(329.634766 0)"/>
    <use xlink:href="#DejaVuSans-74" transform="translate(393.013672 0)"/>
    <use xlink:href="#DejaVuSans-6f" transform="translate(432.222656 0)"/>
    <use xlink:href="#DejaVuSans-20" transform="translate(493.404297 0)"/>
    <use xlink:href="#DejaVuSans-70" transform="translate(525.191406 0)"/>
    <use xlink:href="#DejaVuSans-65" transform="translate(588.667969 0)"/>
    <use xlink:href="#DejaVuSans-72" transform="translate(650.191406 0)"/>
    <use xlink:href="#DejaVuSans-20" transform="translate(691.304688 0)"/>
    <use xlink:href="#DejaVuSans-63" transform="translate(723.091797 0)"/>
    <use xlink:href="#DejaVuSans-6c" transform="translate(778.072266 0)"/>
    <use xlink:href="#DejaVuSans-61" transform="translate(805.855469 0)"/>
    <use xlink:href="#DejaVuSans-73" transform="translate(867.134766 0)"/>
    <use xlink:href="#DejaVuSans-73" transform="translate(919.234375 0)"/>
    <use xlink:href="#DejaVuSans-65" transform="translate(971.333984 0)"/>
    <use xlink:href="#DejaVuSans-3a" transform="translate(1032.857422 0)"/>
    <use xlink:href="#DejaVuSans-20" transform="translate(1066.548828 0)"/>
    <use xlink:href="#DejaVuSans-50" transform="translate(1098.335938 0)"/>
    <use xlink:href="#DejaVuSans-72" transform="translate(1156.888672 0)"/>
    <use xlink:href="#DejaVuSans-65" transform="translate(1195.751953 0)"/>
    <use xlink:href="#DejaVuSans-63" transform="translate(1257.275391 0)"/>
    <use xlink:href="#DejaVuSans-69" transform="translate(1312.255859 0)"/>
    <use xlink:href="#DejaVuSans-73" transform="translate(1340.039062 0)"/>
    <use xlink:href="#DejaVuSans-69" transform="translate(1392.138672 0)"/>
    <use xlink:href="#DejaVuSans-6f" transform="translate(1419.921875 0)"/>
    <use xlink:href="#DejaVuSans-6e" transform="translate(1481.103516 0)"/>
    <use xlink:href="#DejaVuSans-2c" transform="translate(1544.482422 0)"/>
    <use xlink:href="#DejaVuSans-20" transform="translate(1576.269531 0)"/>
    <use xlink:href="#DejaVuSans-52" transform="translate(1608.056641 0)"/>
    <use xlink:href="#DejaVuSans-65" transform="translate(1673.039062 0)"/>
    <use xlink:href="#DejaVuSans-63" transform="translate(1734.5625 0)"/>
    <use xlink:href="#DejaVuSans-61" transform="translate(1789.542969 0)"/>
    <use xlink:href="#DejaVuSans-6c" transform="translate(1850.822266 0)"/>
    <use xlink:href="#DejaVuSans-6c" transform="translate(1878.605469 0)"/>
    <use xlink:href="#DejaVuSans-20" transform="translate(1906.388672 0)"/>
    <use xlink:href="#DejaVuSans-65" transform="translate(1938.175781 0)"/>
    <use xlink:href="#DejaVuSans-20" transform="translate(1999.699219 0)"/>
    <use xlink:href="#DejaVuSans-46" transform="translate(2031.486328 0)"/>
    <use xlink:href="#DejaVuSans-31" transform="translate(2089.005859 0)"/>
    <use xlink:href="#DejaVuSans-2d" transform="translate(2152.628906 0)"/>
    <use xlink:href="#DejaVuSans-73" transform="translate(2188.712891 0)"/>
    <use xlink:href="#DejaVuSans-63" transform="translate(2240.8125 0)"/>
    <use xlink:href="#DejaVuSans-6f" transform="translate(2295.792969 0)"/>
    <use xlink:href="#DejaVuSans-72" transform="translate(2356.974609 0)"/>
    <use xlink:href="#DejaVuSans-65" transform="translate(2395.837891 0)"/>
   </g>
  </g>
  <g id="legend_1">
   <g id="patch_60">
    <path d="M 232.97375 365.8 
L 479.14875 365.8 
Q 481.14875 365.8 481.14875 363.8 
L 481.14875 350.121875 
Q 481.14875 348.121875 479.14875 348.121875 
L 232.97375 348.121875 
Q 230.97375 348.121875 230.97375 350.121875 
L 230.97375 363.8 
Q 230.97375 365.8 232.97375 365.8 
z
" style="fill: #ffffff; opacity: 0.8; stroke: #cccccc; stroke-linejoin: miter"/>
   </g>
   <g id="patch_61">
    <path d="M 234.97375 359.720312 
L 254.97375 359.720312 
L 254.97375 352.720312 
L 234.97375 352.720312 
z
" style="fill: #1f77b4"/>
   </g>
   <g id="text_27">
    <!-- Precision -->
    <g transform="translate(262.97375 359.720312) scale(0.1 -0.1)">
     <use xlink:href="#DejaVuSans-50"/>
     <use xlink:href="#DejaVuSans-72" transform="translate(58.552734 0)"/>
     <use xlink:href="#DejaVuSans-65" transform="translate(97.416016 0)"/>
     <use xlink:href="#DejaVuSans-63" transform="translate(158.939453 0)"/>
     <use xlink:href="#DejaVuSans-69" transform="translate(213.919922 0)"/>
     <use xlink:href="#DejaVuSans-73" transform="translate(241.703125 0)"/>
     <use xlink:href="#DejaVuSans-69" transform="translate(293.802734 0)"/>
     <use xlink:href="#DejaVuSans-6f" transform="translate(321.585938 0)"/>
     <use xlink:href="#DejaVuSans-6e" transform="translate(382.767578 0)"/>
    </g>
   </g>
   <g id="patch_62">
    <path d="M 327.587812 359.720312 
L 347.587812 359.720312 
L 347.587812 352.720312 
L 327.587812 352.720312 
z
" style="fill: #ff7f0e"/>
   </g>
   <g id="text_28">
    <!-- Recall -->
    <g transform="translate(355.587812 359.720312) scale(0.1 -0.1)">
     <use xlink:href="#DejaVuSans-52"/>
     <use xlink:href="#DejaVuSans-65" transform="translate(64.982422 0)"/>
     <use xlink:href="#DejaVuSans-63" transform="translate(126.505859 0)"/>
     <use xlink:href="#DejaVuSans-61" transform="translate(181.486328 0)"/>
     <use xlink:href="#DejaVuSans-6c" transform="translate(242.765625 0)"/>
     <use xlink:href="#DejaVuSans-6c" transform="translate(270.548828 0)"/>
    </g>
   </g>
   <g id="patch_63">
    <path d="M 405.422187 359.720312 
L 425.422187 359.720312 
L 425.422187 352.720312 
L 405.422187 352.720312 
z
" style="fill: #2ca02c"/>
   </g>
   <g id="text_29">
    <!-- F1-Score -->
    <g transform="translate(433.422187 359.720312) scale(0.1 -0.1)">
     <use xlink:href="#DejaVuSans-46"/>
     <use xlink:href="#DejaVuSans-31" transform="translate(57.519531 0)"/>
     <use xlink:href="#DejaVuSans-2d" transform="translate(121.142578 0)"/>
     <use xlink:href="#DejaVuSans-53" transform="translate(157.226562 0)"/>
     <use xlink:href="#DejaVuSans-63" transform="translate(220.703125 0)"/>
     <use xlink:href="#DejaVuSans-6f" transform="translate(275.683594 0)"/>
     <use xlink:href="#DejaVuSans-72" transform="translate(336.865234 0)"/>
     <use xlink:href="#DejaVuSans-65" transform="translate(375.728516 0)"/>
    </g>
   </g>
  </g>
 </g>
 <defs>
  <clipPath id="p30998d2d54">
   <rect x="43.78125" y="69.36" width="323.59" height="206.155698"/>
  </clipPath>
  <clipPath id="p9f3329d89f">
   <rect x="381.67125" y="69.36" width="323.59" height="206.155698"/>
  </clipPath>
 </defs>
</svg>
